{"title":"Blood the last Vampire 720p BR Rip- Treez (Kingdom Release)","uid":5854709,"size":1723470839,"categoryP":"video","categoryS":"hd___movies","magnet":"?xt=urn:btih:a256f21a9d43ceb7bc88fe58ec09b8dce6e1cd07&amp;dn=Blood+the+last+Vampire+720p+BR+Rip-+Treez+%28Kingdom+Release%29&amp;tr=udp%3A%2F%2Ftracker.openbittorrent.com%3A80&amp;tr=udp%3A%2F%2Fopen.demonii.com%3A1337&amp;tr=udp%3A%2F%2Ftracker.coppersurfer.tk%3A6969&amp;tr=udp%3A%2F%2Fexodus.desync.com%3A6969","seeders":0,"leechers":0,"uploader":"Treezluv2draw","files":6,"time":1285557379,"description":"Japan, 1966. Saya is part of a secret team destroying daemons. She is sent undercover as a student at the Yokota Air Base in Fussa-shi, Tokyo, just before Halloween. She discovers that two of her classmates are vampires in disguise just as they are preparing to attack the school nurse; meanwhile, her colleagues have discovered another vampire acting as a bartender in the local red-light district. A spectacular battle ensues.\n\nVideo\nID                               : 0\nFormat                           : MPEG-4 Visual\nFormat profile                   : Advanced Simple@L5\nFormat settings, BVOP            : Yes\nFormat settings, QPel            : No\nFormat settings, GMC             : No warppoints\nFormat settings, Matrix          : Default (H.263)\nCodec ID                         : XVID\nCodec ID/Hint                    : XviD\nDuration                         : 48mn 18s\nBit rate                         : 3 237 Kbps\nWidth                            : 720 pixels\nHeight                           : 384 pixels\nDisplay aspect ratio             : 1.875\nFrame rate                       : 23.976 fps\nColor space                      : YUV\nChroma subsampling               : 4:2:0\nBit depth                        : 8 bits\nScan type                        : Progressive\nBits/(Pixel*Frame)               : 0.488\nStream size                      : 1.09 GiB (68%)\nWriting library                  : XviD 1.2.1 (UTC 2008-12-04)\n\nAudio\nID                               : 1\nFormat                           : DTS\nFormat/Info                      : Digital Theater Systems\nCodec ID                         : 2001\nCodec ID/Info                    : Digital Theater Systems\nDuration                         : 48mn 18s\nBit rate mode                    : Constant\nBit rate                         : 1 510 Kbps\nChannel(s)                       : 6 channels\nChannel positions                : Front: L C R, Side: L R, LFE\nSampling rate                    : 48.0 KHz\nBit depth                        : 24 bits\nStream size                      : 521 MiB (32%)\nAlignment                        : Split accross interleaves\nInterleave, duration             : 42 ms (1.00 video frame)\nInterleave, preload duration     : 500 ms\n","torrent":{"xt":"urn:btih:a256f21a9d43ceb7bc88fe58ec09b8dce6e1cd07","amp;dn":"Blood+the+last+Vampire+720p+BR+Rip-+Treez+%28Kingdom+Release%29","amp;tr":["udp%3A%2F%2Ftracker.openbittorrent.com%3A80","udp%3A%2F%2Fopen.demonii.com%3A1337","udp%3A%2F%2Ftracker.coppersurfer.tk%3A6969","udp%3A%2F%2Fexodus.desync.com%3A6969"],"infoHash":"a256f21a9d43ceb7bc88fe58ec09b8dce6e1cd07","infoHashBuffer":{"type":"Buffer","data":[162,86,242,26,157,67,206,183,188,136,254,88,236,9,184,220,230,225,205,7]},"announce":[],"urlList":[]}}